<?xml version="1.0" encoding="UTF-8" standalone="no"?>
<svg width="18px" height="20px" viewBox="0 0 18 20" version="1.1" xmlns="http://www.w3.org/2000/svg" xmlns:xlink="http://www.w3.org/1999/xlink">
    <!-- Generator: Sketch 39.1 (31720) - http://www.bohemiancoding.com/sketch -->
    <title>icon/dark/pencil</title>
    <desc>Created with Sketch.</desc>
    <defs>
        <path d="M14.9260882,1.02688562 C14.2414978,0.342295207 13.3440498,0 12.4466017,0 C11.5493638,0 10.6519158,0.342295207 9.96711529,1.02688562 L0,10.9940009 L0,15.9529738 L4.95897291,15.9529738 L14.9260882,5.98585851 C16.2954791,4.61646758 16.2954791,2.39627658 14.9260882,1.02688562 Z M0.000210133333,20 L17.4055746,20 L17.4055746,18.5291182 L0.000210133333,18.5291182 L0.000210133333,20 L0.000210133333,20 Z M14.1982118,11.9061577 L17.4055746,11.9061577 L17.4055746,10.435276 L14.1982118,10.435276 L14.1982118,11.9061577 L14.1982118,11.9061577 Z M9.57186833,15.9529738 L17.4055746,15.9529738 L17.4055746,14.482092 L9.57186833,14.482092 L9.57186833,15.9529738 L9.57186833,15.9529738 Z" id="path-1"></path>
        <mask id="mask-2" maskContentUnits="userSpaceOnUse" maskUnits="objectBoundingBox" x="0" y="0" width="17.4055746" height="20" fill="white">
            <use xlink:href="#path-1"></use>
        </mask>
    </defs>
    <g id="Screens" stroke="none" stroke-width="1" fill="none" fill-rule="evenodd" opacity="0.5">
        <g id="Content_BudgetList" transform="translate(-340.000000, -129.000000)">
            <g id="icon/dark/pencil" transform="translate(337.000000, 127.000000)">
                <g id="Group-2">
                    <rect id="Rectangle" fill="#D8D8D8" opacity="0" x="0" y="0" width="24" height="24"></rect>
                    <g id="noun_428750_cc" transform="translate(3.000000, 2.000000)" stroke-width="3" stroke="#000000">
                        <g id="tool-6-copy">
                            <g id="Group">
                                <use id="Shape" mask="url(#mask-2)" xlink:href="#path-1"></use>
                            </g>
                        </g>
                    </g>
                </g>
            </g>
        </g>
    </g>
</svg>